<?xml version="1.0" encoding="utf-8"?>
<!-- Generator: Adobe Illustrator 25.4.1, SVG Export Plug-In . SVG Version: 6.00 Build 0) -->
<svg version="1.1" id="Layer_1" xmlns="http://www.w3.org/2000/svg" xmlns:xlink="http://www.w3.org/1999/xlink" x="0px" y="0px" viewBox="0 0 1920 1080" style="enable-background:new 0 0 1920 1080;" xml:space="preserve">
  <style type="text/css">
    .st0 {
      stroke: #FFFFFF;
      stroke-miterlimit: 10;
    }
  </style>
  <g>
    <g>
      <path class="st0" d="M1009.62,492.33c-38.01,4.99-75.12,13.85-112.33,22.92c4.94,30.03,12.76,59.12,21.41,88.27
			c37.35-4.82,73.45-14.37,109.63-24.61C1024.93,549.31,1017.93,520.89,1009.62,492.33z"/>
      <path class="st0" d="M1016.05,491.63c-42.61,4.88-84.08,15.15-125.68,25.3c1.08,7.42,1.76,11.17,3.31,18.74
			c42.7-8.6,85.13-18.43,128.3-24.5C1019.75,503.42,1018.55,499.51,1016.05,491.63z"/>
      <path class="st0" d="M966,499.42c-9.24,1.85-13.89,2.87-23.26,4.98c5.57,30.76,12.22,61.31,18.14,92.01
			c8.99-1.94,13.53-3.03,22.7-5.33C978.78,560.31,972.3,529.9,966,499.42z"/>
      <path class="st0" d="M966.63,474.84c-2.18,0.45-3.28,0.68-5.48,1.15c-5.97,1.29-10.02,7.7-8.88,14.15
			c0.83,4.67,1.26,7.01,2.14,11.69c6.89-1.48,10.32-2.19,17.13-3.5c6.24-1.2,10.01-7.3,8.49-13.78v0
			C978.52,478.07,972.56,473.63,966.63,474.84z"/>
      <path class="st0" d="M933.64,482.69c2.26-0.6,3.39-0.9,5.64-1.48c6.11-1.58,11.85,2.48,12.99,8.93c0.83,4.67,1.26,7.01,2.14,11.69
			c-6.89,1.48-10.36,2.26-17.31,3.87c-6.37,1.47-12.39-2.4-13.25-8.65v0C923,490.79,927.49,484.33,933.64,482.69z"/>
    </g>
  </g>
</svg>